<?xml version="1.0" encoding="UTF-8"?>
<svg enable-background="new 0 0 66.7 39.5" version="1.1" viewBox="0 0 66.7 39.5" xml:space="preserve" xmlns="http://www.w3.org/2000/svg">
<g fill="#606">
<path d="m25.3 16.2c0-1.3-0.7-1.9-2.4-1.9-1.8 0-4.4 0.5-6.3 1.2l2.1-5.1c1.1-0.4 2.5-0.6 4.2-0.6 5.7 0 7.2 2.6 7.2 6.6v12h-3.3l-0.3-0.5c-1.3 0.7-3 1.1-4.3 1.1-5.1 0-6.8-3.1-6.8-6.4 0-3.1 1.8-5.8 6.8-6.1l3.1-0.3zm-3.1 4.4c-1.7 0.1-2.1 1-2.1 1.9s0.3 1.9 2.1 1.9c1 0 2.4-0.5 3.1-0.9v-3.3l-3.1 0.4z"/>
<path d="M7.1,1.9l3.5,10.7L14,1.9h5.3l-10.4,27H3.6l4.5-10.4L1.7,1.9H7.1z"/>
	<path d="m25 3c-0.1-0.2-0.3-0.3-0.4-0.3-0.2-0.1-0.4-0.1-0.5-0.1-0.2 0-0.4 0-0.6 0.1s-0.3 0.2-0.5 0.3c-0.1 0.1-0.2 0.3-0.3 0.5s-0.1 0.4-0.1 0.6 0 0.4 0.1 0.6 0.2 0.4 0.3 0.5 0.3 0.2 0.5 0.3 0.4 0.1 0.6 0.1 0.4 0 0.6-0.1 0.3-0.2 0.4-0.4l0.6 0.4c-0.2 0.2-0.4 0.4-0.7 0.5s-0.6 0.2-1 0.2c-0.3 0-0.6-0.1-0.9-0.2s-0.5-0.3-0.7-0.5c-0.3 0-0.4-0.2-0.5-0.5s-0.2-0.6-0.2-0.9 0.1-0.6 0.2-0.9 0.3-0.5 0.5-0.7 0.4-0.3 0.7-0.4 0.6-0.2 0.9-0.2h0.4c0.1 0 0.3 0.1 0.4 0.1 0.1 0.1 0.3 0.1 0.4 0.2s0.2 0.2 0.3 0.3l-0.5 0.5z"/>
	<path d="m26.3 4.1c0-0.3 0.1-0.6 0.2-0.9s0.3-0.5 0.5-0.7 0.4-0.3 0.7-0.4 0.6-0.2 0.9-0.2 0.6 0.1 0.9 0.2 0.5 0.3 0.7 0.4c0.2 0.2 0.4 0.4 0.5 0.7s0.2 0.6 0.2 0.9-0.1 0.6-0.2 0.9-0.3 0.5-0.5 0.7-0.4 0.4-0.7 0.5-0.6 0.2-0.9 0.2-0.6-0.1-0.9-0.2-0.5-0.3-0.7-0.5-0.4-0.4-0.5-0.7-0.2-0.6-0.2-0.9zm0.8 0c0 0.2 0 0.4 0.1 0.6s0.2 0.4 0.3 0.5 0.3 0.2 0.5 0.3 0.4 0.1 0.6 0.1 0.4 0 0.6-0.1 0.3-0.2 0.5-0.3c0.1-0.1 0.2-0.3 0.3-0.5s0.1-0.4 0.1-0.6 0-0.4-0.1-0.6-0.2-0.4-0.3-0.5-0.3-0.3-0.5-0.3c-0.2-0.1-0.4-0.1-0.6-0.1s-0.4 0-0.6 0.1-0.3 0.2-0.5 0.3c-0.1 0.1-0.2 0.3-0.3 0.5 0 0.2-0.1 0.4-0.1 0.6z"/>
	<path d="M32.1,2h1l2,3.2h0V2h0.8v4.2h-1l-2-3.3h0v3.3h-0.8V2z"/>
	<path d="M38.2,2.6h-1.3V2h3.4v0.7h-1.3v3.6h-0.8V2.6z"/>
	<path d="M41.2,2h2.8v0.7H42v1.1h2v0.6h-2v1.2h2.2v0.7h-2.9V2z"/>
	<path d="M45.4,2h1l2,3.2h0V2h0.8v4.2h-1l-2-3.3h0v3.3h-0.8V2z"/>
	<path d="M51.5,2.6h-1.3V2h3.4v0.7h-1.3v3.6h-0.8V2.6z"/>
<path d="m56.9 9.8c-0.9 0-1.6 0.1-2.3 0.2l-5.7 7.9v1.4c0 5.6 1.5 9.6 8.1 9.6 6.7 0 8.1-4 8.1-9.6s-1.5-9.5-8.2-9.5zm0 14.6c-3 0-3.3-2.3-3.3-5.1s0.3-5.1 3.3-5.1 3.3 2.3 3.3 5.1-0.3 5.1-3.3 5.1z"/>
<path d="m39.4 24.1h-0.9c-0.5 0.3-0.6 0.5-0.6 0.8s0.2 0.5 0.7 0.6l5 0.6c3.6 0.4 5.3 1.8 5.3 5.3 0 4.7-4.6 6.6-9.6 6.6-5.2 0-8.5-1.6-8.5-5.9 0-2 1.3-3.5 2.9-4.4-0.3-0.5-0.4-1.2-0.4-1.9 0-1.1 0.5-2 1.2-2.7-1.8-1.3-2.5-3.3-2.5-6 0-4.4 1.9-7.2 7.6-7.2 1.5 0 2.8 0.2 3.8 0.6h8.2l-2.4 3.3-2.2 0.5c-0.1 0.7 0 1.6 0 2.7 0 4.3-1.9 7.1-7.6 7.1zm-2 5.5c-1.2 0.7-1.8 1.4-1.8 2.2 0 1.3 1.3 1.6 3.6 1.6 2.4 0 4.8-0.5 4.8-2.1 0-0.7-0.5-1-1.5-1.1l-5.1-0.6zm2-9.9c2.4 0 3-1.1 3-2.7s-0.5-2.7-3-2.7-3 1.1-3 2.7c0.1 1.6 0.5 2.7 3 2.7z"/>
<path d="m-79.9 18.6c0-1.3-0.7-1.9-2.4-1.9-1.8 0-4.4 0.5-6.3 1.2l2.1-5.1c1.1-0.4 2.5-0.6 4.2-0.6 5.7 0 7.2 2.6 7.2 6.6v12h-3.3l-0.3-0.5c-1.3 0.7-3 1.1-4.3 1.1-5.1 0-6.8-3.1-6.8-6.4 0-3.1 1.8-5.8 6.8-6.1l3.1-0.3zm-3.1 4.4c-1.7 0.1-2.1 1-2.1 1.9s0.3 1.9 2.1 1.9c1 0 2.4-0.5 3.1-0.9v-3.3l-3.1 0.4z"/>
<path d="m-98.1 4.4l3.5 10.7 3.5-10.7h5.3l-10.4 27h-5.3l4.5-10.4-6.4-16.6h5.3z"/>
<text transform="translate(-83.752 8.6536)" font-family="'AvenirNext-DemiBold'" font-size="6px">content</text>
<path d="m-48.3 12.2c-0.9 0-1.6 0.1-2.3 0.2l-5.7 7.9v1.4c0 5.6 1.5 9.6 8.1 9.6 6.7 0 8.1-4 8.1-9.6s-1.5-9.5-8.2-9.5zm0 14.7c-3 0-3.3-2.3-3.3-5.1s0.3-5.1 3.3-5.1 3.3 2.3 3.3 5.1-0.3 5.1-3.3 5.1z"/>
<path d="m-65.8 26.6h-0.9c-0.5 0.3-0.6 0.5-0.6 0.8s0.2 0.5 0.7 0.6l5 0.6c3.6 0.4 5.3 1.8 5.3 5.3 0 4.7-4.6 6.6-9.6 6.6-5.2 0-8.5-1.6-8.5-5.9 0-2 1.3-3.5 2.9-4.4-0.3-0.5-0.4-1.2-0.4-1.9 0-1.1 0.5-2 1.2-2.7-1.8-1.3-2.5-3.3-2.5-6 0-4.4 1.9-7.2 7.6-7.2 1.5 0 2.8 0.2 3.8 0.6h8.2l-2.4 3.3-2.2 0.5c0.2 0.8 0.3 1.7 0.3 2.8-0.3 4.1-2.2 7-7.9 7zm-2 5.5c-1.2 0.7-1.8 1.4-1.8 2.2 0 1.3 1.3 1.6 3.6 1.6 2.4 0 4.8-0.5 4.8-2.1 0-0.7-0.5-1-1.5-1.1l-5.1-0.6zm2-10c2.4 0 3-1.1 3-2.7s-0.5-2.7-3-2.7-3 1.1-3 2.7c0.1 1.6 0.5 2.7 3 2.7z"/>
</g>
</svg>
